<svg width="32" height="32" viewBox="0 0 32 32" fill="none" xmlns="http://www.w3.org/2000/svg">
<g id="Shopify.com svg">
<g id="Group">
<g id="Group_2">
<path id="Vector" d="M21.2105 3.80404C21.2105 3.80404 20.8505 3.90685 20.259 4.08677C20.1561 3.75263 20.0018 3.36709 19.7961 2.95584C19.1274 1.6707 18.1245 0.976727 16.9415 0.976727C16.8644 0.976727 16.7872 0.976727 16.6843 1.00243C16.6586 0.951024 16.6072 0.925321 16.5815 0.873916C16.0671 0.308454 15.3985 0.0514257 14.6013 0.0771285C13.0583 0.128534 11.5152 1.23375 10.2808 3.21287C9.40646 4.60082 8.73782 6.34861 8.55781 7.71086C6.78334 8.25062 5.54893 8.63616 5.52321 8.66187C4.62312 8.9446 4.59741 8.9703 4.49454 9.81849C4.34024 10.4611 2 28.5815 2 28.5815L21.442 31.9486V3.75263C21.3391 3.77833 21.2619 3.77833 21.2105 3.80404ZM16.7101 5.19199C15.6814 5.50042 14.5498 5.86026 13.444 6.1944C13.7526 4.98637 14.3698 3.77833 15.0899 2.98155C15.3728 2.69882 15.7585 2.36468 16.1957 2.15906C16.6329 3.08436 16.7358 4.34379 16.7101 5.19199ZM14.627 1.10524C14.987 1.10524 15.2956 1.18235 15.5528 1.33657C15.1413 1.54219 14.7299 1.87633 14.3441 2.26187C13.3669 3.31568 12.6211 4.96066 12.3125 6.52853C11.3867 6.81126 10.4609 7.094 9.6122 7.35102C10.1523 4.90926 12.2353 1.18235 14.627 1.10524ZM11.6181 15.2418C11.721 16.8868 16.0671 17.2466 16.3243 21.1277C16.5043 24.1864 14.7041 26.2683 12.1067 26.4225C8.96928 26.6281 7.24625 24.7775 7.24625 24.7775L7.91488 21.9502C7.91488 21.9502 9.63792 23.2611 11.0266 23.1583C11.9267 23.1068 12.261 22.3615 12.2353 21.8474C12.1067 19.6884 8.55781 19.8169 8.32635 16.2699C8.12062 13.3141 10.0751 10.3068 14.3955 10.0241C16.0671 9.9213 16.9158 10.3326 16.9158 10.3326L15.9386 14.0338C15.9386 14.0338 14.8327 13.5197 13.5212 13.6225C11.6181 13.751 11.5924 14.9591 11.6181 15.2418ZM17.7387 4.88355C17.7387 4.11247 17.6359 3.00725 17.2758 2.08195C18.4588 2.31327 19.0246 3.62412 19.2817 4.4209C18.8188 4.54942 18.3045 4.70363 17.7387 4.88355Z" fill="white"/>
<path id="Vector_2" d="M22.085 31.8458L30.1601 29.841C30.1601 29.841 26.6883 6.37429 26.6626 6.22007C26.6369 6.06585 26.5083 5.96304 26.3797 5.96304C26.2511 5.96304 23.988 5.91164 23.988 5.91164C23.988 5.91164 22.5993 4.57509 22.085 4.06104V31.8458Z" fill="white"/>
</g>
</g>
</g>
</svg>
